<?xml version="1.0" standalone="no"?>
<!DOCTYPE svg PUBLIC "-//W3C//DTD SVG 20010904//EN"
 "http://www.w3.org/TR/2001/REC-SVG-20010904/DTD/svg10.dtd">
<svg version="1.0" xmlns="http://www.w3.org/2000/svg"
 width="1500.000000pt" height="1500.000000pt" viewBox="0 0 1500.000000 1500.000000"
 preserveAspectRatio="xMidYMid meet">
<metadata>
Created by potrace 1.14, written by Peter Selinger 2001-2017
</metadata>
<g transform="translate(0.000000,1500.000000) scale(0.100000,-0.100000)"
fill="#000000" stroke="none">
<path d="M9766 13982 c-3 -5 22 -28 56 -53 92 -66 163 -152 213 -254 80 -166
96 -329 50 -511 -28 -111 -101 -266 -143 -307 l-27 -26 3 72 c7 140 -52 343
-144 501 -81 138 -237 279 -348 316 -67 22 -57 -1 42 -98 110 -108 158 -187
205 -338 24 -75 53 -241 44 -250 -2 -2 -27 25 -55 60 -29 35 -110 120 -181
189 -190 184 -366 294 -566 352 -73 22 -112 27 -205 28 -157 1 -279 -32 -368
-100 -27 -20 -48 -26 -104 -30 -84 -4 -172 -32 -250 -78 l-58 -34 -212 -7
c-298 -10 -386 8 -481 95 -42 39 -77 53 -77 31 0 -16 48 -108 80 -152 89 -123
200 -215 335 -279 l100 -47 -175 -1 c-96 0 -213 -3 -260 -6 -394 -27 -727 -23
-923 10 -328 57 -647 199 -786 350 -28 32 -54 55 -57 52 -9 -9 17 -90 53 -162
51 -103 114 -186 235 -311 121 -125 227 -207 353 -275 l86 -46 -88 -7 c-167
-13 -378 15 -558 75 -84 28 -137 53 -227 108 l-38 23 0 -25 c0 -36 127 -151
275 -249 66 -44 121 -82 123 -86 4 -12 -157 -71 -233 -87 -145 -30 -308 -12
-443 50 -30 14 -61 25 -69 25 -26 0 -6 -78 52 -196 41 -83 70 -128 121 -183
74 -80 214 -178 305 -213 33 -13 59 -26 59 -30 0 -4 -39 -28 -87 -55 -126 -68
-222 -94 -368 -100 -105 -4 -131 -1 -210 20 -49 13 -98 27 -107 31 -30 13 -21
-9 26 -67 99 -121 285 -197 482 -197 l78 0 -30 -31 c-49 -53 -205 -180 -284
-232 -208 -136 -527 -242 -662 -220 -60 9 -58 -14 4 -72 120 -112 361 -198
597 -212 l94 -6 -34 -29 c-244 -207 -412 -292 -621 -313 -38 -4 -68 -10 -68
-12 0 -15 78 -108 130 -156 178 -165 436 -337 581 -387 53 -19 74 -31 71 -41
-2 -8 -17 -47 -33 -87 -34 -87 -36 -102 -10 -95 16 4 21 -3 30 -49 71 -364 70
-356 55 -411 -8 -29 -37 -162 -64 -297 -28 -135 -66 -308 -84 -385 -62 -255
-76 -319 -96 -458 -21 -147 -26 -363 -10 -512 4 -44 13 -129 19 -189 6 -59 42
-264 80 -455 57 -285 76 -405 106 -676 57 -521 72 -630 96 -680 27 -58 168
-192 281 -268 180 -120 360 -201 528 -237 93 -20 123 -22 280 -17 157 4 199
10 408 52 128 26 242 45 255 41 12 -3 84 -71 159 -151 163 -172 189 -218 211
-370 8 -55 13 -102 11 -104 -3 -3 -24 1 -47 7 -23 7 -132 35 -242 62 -110 28
-240 60 -290 72 -118 30 -196 28 -269 -5 -152 -70 -879 -596 -919 -665 -10
-17 -21 -59 -24 -91 -5 -50 -10 -62 -34 -80 -15 -11 -42 -42 -60 -68 -105
-156 -198 -242 -334 -310 -38 -20 -113 -64 -165 -98 -121 -80 -215 -127 -310
-155 -253 -73 -512 -204 -651 -329 -122 -109 -224 -284 -235 -403 l-7 -65 -53
-32 c-145 -87 -296 -261 -388 -447 -58 -119 -122 -302 -176 -503 -39 -143 -65
-219 -100 -290 -132 -262 -240 -655 -266 -970 l-7 -81 4830 0 4830 0 51 110
c29 60 65 142 81 182 16 40 50 120 76 178 106 236 250 641 305 860 40 156 56
289 43 362 -8 46 -6 70 9 130 21 82 82 574 93 743 3 61 13 187 21 280 7 94 16
303 20 465 3 162 8 360 10 440 16 476 -9 581 -205 847 l-89 121 6 130 c5 141
-5 205 -44 282 -21 44 -22 51 -12 165 23 279 -26 604 -107 711 -36 47 -50 55
-226 130 -85 37 -255 111 -379 166 -318 142 -319 142 -630 142 -271 0 -418
-12 -730 -60 -188 -29 -216 -42 -350 -158 -41 -36 -75 -64 -76 -63 -1 1 -18
82 -39 180 l-38 177 99 97 c90 88 393 352 588 513 108 89 340 352 376 426 45
92 72 205 77 329 4 104 1 137 -22 250 -15 72 -39 169 -55 217 l-28 88 73 127
c39 71 102 175 139 232 41 63 64 107 58 113 -5 5 -36 -9 -77 -37 -37 -25 -69
-45 -70 -45 -2 0 28 51 65 113 l67 112 39 -2 c95 -7 316 -109 363 -169 32 -41
40 -29 25 39 -46 219 -181 443 -399 663 l-110 112 58 -29 c32 -16 99 -44 150
-61 86 -30 101 -32 233 -33 107 0 145 3 158 14 15 13 9 18 -59 51 -165 82
-311 234 -395 412 -30 63 -58 164 -48 174 3 3 28 -8 55 -25 70 -43 215 -89
322 -101 106 -12 296 0 405 25 132 31 306 110 306 140 0 12 -16 19 -137 61
-129 44 -280 136 -413 249 -153 130 -266 273 -416 525 -122 204 -190 293 -263
340 l-51 33 82 44 c265 141 472 373 763 849 62 102 53 109 -37 28 -166 -149
-348 -232 -628 -288 -172 -34 -293 -46 -474 -46 l-156 0 56 72 c220 285 376
689 390 1013 l5 110 -43 -50 c-182 -209 -265 -284 -409 -370 -77 -45 -279
-135 -306 -135 -7 0 5 27 27 61 101 157 134 379 84 571 -71 277 -273 491 -555
592 -144 52 -299 80 -313 58z m439 -280 c60 -73 108 -160 135 -247 28 -90 30
-239 5 -340 -27 -110 -33 -107 -27 17 9 223 -46 429 -160 595 -41 60 -9 43 47
-25z m-1416 -299 c179 -51 342 -161 463 -312 64 -80 162 -240 153 -250 -3 -2
-31 25 -62 60 -179 203 -388 369 -608 486 -108 57 -99 60 54 16z m-1534 -3241
c1 -327 26 -531 95 -752 31 -100 88 -222 105 -227 6 -2 10 83 10 239 0 262 8
322 63 493 l26 80 12 -108 c14 -120 24 -156 65 -239 52 -103 63 -89 49 61 -5
61 -6 164 -3 229 l7 117 26 -85 c76 -241 220 -483 346 -580 45 -36 63 -60 104
-140 87 -168 245 -388 265 -369 3 4 -9 45 -28 90 -48 116 -83 231 -101 330
-18 102 -30 219 -23 219 4 0 15 -28 26 -62 32 -104 80 -218 133 -317 l50 -93
-16 -57 c-9 -32 -16 -66 -15 -77 0 -18 1 -18 9 1 5 11 14 39 20 63 6 23 15 42
20 42 19 0 21 -48 5 -104 -9 -31 -15 -61 -13 -68 2 -6 12 17 23 51 10 33 20
61 22 61 2 0 40 -38 85 -85 44 -47 86 -85 94 -85 18 0 18 0 -12 67 -52 115
-74 192 -63 220 8 21 7 24 -6 19 -10 -3 -17 3 -21 21 -7 28 22 92 73 161 14
18 23 35 20 38 -5 6 -45 -46 -79 -105 -30 -50 -29 -52 -53 84 -19 104 -32 355
-19 355 5 0 24 -29 42 -65 129 -249 342 -515 554 -692 44 -36 88 -83 98 -103
37 -72 71 -212 77 -310 l6 -95 -103 -250 c-182 -447 -234 -603 -227 -681 6
-55 31 -113 81 -183 30 -42 32 -43 77 -38 69 8 223 62 314 110 88 46 65 19
247 297 72 109 210 280 227 280 4 0 8 -15 9 -33 2 -45 27 -112 64 -172 32 -52
96 -125 109 -125 4 0 -7 26 -26 58 -109 184 -126 240 -93 306 35 68 180 194
441 380 251 179 352 230 479 242 60 5 81 3 107 -11 18 -9 31 -19 28 -21 -3 -3
6 -16 19 -30 24 -23 80 -134 103 -203 8 -26 8 -38 -2 -49 -10 -13 -9 -14 1 -8
25 15 70 -141 48 -165 -8 -9 -8 -10 0 -6 17 10 23 -56 18 -203 -7 -210 -27
-261 -162 -422 -42 -50 -99 -119 -127 -152 -49 -60 -128 -138 -169 -165 -12
-8 -64 -53 -116 -101 -52 -47 -144 -128 -205 -180 -60 -52 -148 -130 -195
-175 -121 -115 -207 -154 -438 -201 -142 -29 -192 -27 -305 8 -65 20 -115 59
-118 91 -1 7 -2 26 -3 42 0 17 -5 30 -11 30 -9 -1 -64 -80 -212 -305 -251
-383 -469 -599 -756 -749 -164 -86 -524 -203 -917 -297 -266 -64 -433 -107
-700 -179 -277 -75 -382 -94 -586 -103 -168 -8 -216 -3 -319 29 -107 35 -395
183 -487 251 -109 81 -226 194 -245 238 -9 22 -24 140 -39 310 -13 151 -33
352 -45 445 -11 94 -23 193 -26 220 -2 28 -18 111 -34 185 -33 150 -82 426
-104 595 -23 165 -30 308 -29 535 l2 205 51 210 c76 308 116 485 171 751 l39
191 -14 95 c-14 88 -32 181 -55 273 -17 69 -14 75 28 75 40 0 73 -25 332 -253
111 -98 154 -127 120 -80 -13 18 29 -26 85 -89 55 -62 168 -158 185 -158 27 0
31 -22 37 -190 8 -236 -17 -445 -73 -610 -29 -84 -78 -155 -285 -416 -153
-192 -248 -327 -265 -374 -21 -57 -17 -102 14 -151 15 -24 39 -71 52 -104 14
-35 42 -77 67 -102 36 -37 49 -43 83 -43 51 0 232 -41 355 -80 102 -33 162
-38 171 -15 10 24 -32 96 -92 160 -31 33 -50 51 -43 40 8 -11 25 -31 38 -45
22 -24 71 -120 71 -140 0 -6 -7 -10 -15 -10 -9 0 -15 9 -15 25 0 30 -52 66
-130 89 -58 17 -187 21 -236 7 -42 -12 -133 6 -161 32 -13 11 -23 29 -23 40 0
23 -41 97 -82 147 -15 19 -28 45 -28 57 0 23 0 23 42 -7 39 -28 78 -39 78 -22
0 4 -16 16 -36 27 -44 23 -74 60 -74 90 0 13 42 76 101 151 55 71 148 191 207
267 59 77 124 158 144 180 82 92 136 238 163 444 16 127 19 342 4 438 -5 33
-12 98 -15 145 -7 91 -29 142 -103 242 -41 56 -54 55 -22 -2 31 -55 20 -50
-18 8 -30 47 -158 177 -234 238 l-38 31 208 6 c114 4 217 8 228 10 11 3 43 8
70 11 190 27 484 131 641 226 37 22 69 39 71 36 2 -2 -3 -60 -12 -129 -30
-250 -17 -567 23 -522 5 6 14 71 20 145 14 157 43 294 102 475 l42 130 93 95
c101 105 192 210 244 283 19 26 35 47 35 47 1 0 1 -111 1 -248z m-1210 67
c-104 -204 -273 -397 -454 -516 -47 -31 -97 -64 -110 -73 -24 -16 -27 -15 -99
33 -77 52 -213 117 -244 117 -10 0 -18 2 -18 5 0 3 27 45 59 94 l59 88 73 7
c173 16 339 65 524 156 66 33 143 77 170 99 28 22 53 40 58 40 4 1 -4 -22 -18
-50z m-304 -3173 c56 -12 169 -60 169 -72 0 -1 -21 4 -47 13 -27 8 -93 28
-148 43 -107 30 -90 40 26 16z m3656 -525 c7 -10 36 -32 67 -49 133 -72 340
-63 628 28 32 10 38 5 38 -30 0 -32 41 -230 76 -365 59 -231 164 -551 289
-884 l47 -125 -24 -18 c-36 -27 -389 -201 -523 -256 -66 -28 -185 -73 -265
-100 l-145 -50 -225 -6 c-326 -8 -527 -36 -1105 -151 -301 -60 -511 -91 -564
-83 -21 3 -9 19 105 148 245 275 462 561 426 560 -20 -1 -94 -94 -240 -298
-33 -47 -88 -106 -327 -359 l-50 -53 -107 -6 c-139 -8 -158 -3 -158 39 -1 17
-7 68 -16 112 -30 164 -30 148 -4 140 l23 -7 -19 33 c-11 19 -36 44 -55 57
-72 49 -303 286 -296 305 5 12 69 31 142 41 17 3 83 18 149 35 65 17 122 28
127 25 5 -3 9 -1 9 5 0 9 32 19 87 26 15 2 48 10 73 19 25 8 70 20 100 26 30
6 80 20 110 30 89 30 278 89 302 94 34 7 195 61 263 89 85 34 259 120 263 129
2 4 9 8 16 8 34 0 207 150 314 273 107 122 342 448 342 473 0 4 16 29 35 55
19 27 35 52 35 55 0 8 34 53 40 54 3 0 11 -9 17 -19z"/>
<path d="M5180 9302 c0 -4 13 -18 29 -32 29 -25 30 -26 19 -80 -14 -74 -4
-347 16 -428 22 -89 48 -133 103 -179 129 -107 272 -183 342 -183 37 0 42 2
31 15 -8 9 -30 15 -57 15 -48 0 -128 40 -250 126 -69 49 -90 85 -122 207 -38
147 -50 457 -18 457 8 0 53 -37 185 -155 11 -10 9 -19 -13 -50 -24 -36 -42
-83 -34 -88 2 -1 29 -15 59 -30 l55 -28 -62 5 -63 4 0 -36 c0 -53 41 -133 89
-173 70 -60 159 -75 233 -39 54 26 54 26 62 -10 3 -16 11 -30 17 -30 9 0 10
19 6 65 l-6 65 24 -16 c71 -47 -26 94 -166 240 -116 122 -295 275 -374 321
-46 28 -105 48 -105 37z"/>
<path d="M5569 9092 c101 -100 186 -180 189 -177 14 13 -145 186 -248 269
-135 110 -119 85 59 -92z"/>
<path d="M6636 8787 c-47 -47 -98 -179 -81 -208 4 -6 24 0 53 17 l47 27 -33
-36 -34 -35 29 -10 28 -10 -38 -1 c-21 -1 -53 -7 -71 -15 -64 -27 -170 -189
-182 -280 -6 -38 -4 -46 15 -56 19 -10 33 -5 104 36 122 71 264 140 337 164
73 25 95 41 87 64 -8 20 -80 57 -139 70 -36 9 27 11 275 9 505 -2 531 -4 892
-68 64 -11 109 -26 155 -52 84 -47 219 -138 325 -219 76 -57 105 -74 105 -59
0 17 -55 122 -95 180 -103 150 -208 264 -318 346 -92 69 -124 78 -81 22 29
-38 25 -37 -41 8 -43 30 -46 31 -245 53 -118 14 -271 23 -655 41 -284 13 -339
16 -364 21 -23 5 -31 0 -55 -35 -16 -23 -33 -41 -38 -41 -5 0 5 18 22 40 37
46 34 65 -4 27z m184 -237 c-8 -5 -19 -10 -25 -10 -5 0 -3 5 5 10 8 5 20 10
25 10 6 0 3 -5 -5 -10z m-30 -66 c72 -20 97 -38 81 -57 -6 -8 -25 -17 -42 -21
-55 -11 -355 -151 -388 -180 -10 -9 -28 -17 -42 -18 -22 -3 -24 0 -22 35 3 47
40 117 102 194 45 55 49 58 101 64 75 7 145 2 210 -17z"/>
<path d="M5289 8501 c21 -39 121 -129 121 -108 0 1 -26 30 -58 65 -58 62 -82
79 -63 43z"/>
<path d="M6932 8344 c-29 -7 -62 -19 -73 -25 -36 -19 -12 -22 37 -5 85 29 150
21 433 -54 63 -16 117 -28 119 -25 13 13 -213 84 -347 109 -98 19 -101 19
-169 0z"/>
<path d="M6792 8253 c-37 -5 -34 -23 4 -23 13 0 24 -3 24 -7 0 -5 -25 -30 -56
-57 -30 -26 -53 -51 -50 -54 3 -3 27 6 53 21 27 14 84 33 128 42 78 15 83 15
180 -7 l100 -24 -3 -45 c-3 -43 -2 -45 31 -57 19 -7 41 -10 48 -8 31 10 133
16 124 8 -6 -5 -52 -22 -102 -37 -51 -16 -93 -35 -93 -41 0 -46 62 -124 121
-155 79 -40 197 -27 291 33 47 29 102 84 110 109 3 10 35 1 121 -31 64 -25
117 -48 117 -52 0 -4 -17 -16 -38 -27 -22 -11 -113 -65 -203 -121 -181 -112
-242 -135 -322 -125 -159 20 -318 91 -394 175 -44 49 -148 118 -161 106 -12
-13 162 -165 230 -201 130 -69 308 -112 425 -101 71 6 103 21 367 168 169 95
180 100 222 94 24 -3 44 -2 44 3 0 8 -125 80 -265 153 -76 40 -257 112 -380
151 -261 85 -527 128 -673 110z"/>
<path d="M7615 8165 c128 -62 277 -126 282 -121 10 9 -322 158 -346 155 -3 0
26 -16 64 -34z"/>
<path d="M10779 8156 c-2 -2 -24 -6 -49 -9 -187 -23 -393 -112 -440 -189 -34
-57 -53 -137 -52 -223 6 -290 9 -261 -38 -353 -50 -97 -70 -114 -212 -182
-106 -50 -168 -92 -167 -113 0 -7 24 -23 52 -37 36 -18 65 -43 92 -79 l40 -53
50 5 c68 7 147 45 140 68 -3 9 1 22 10 29 18 15 20 33 3 27 -26 -8 -34 23 -27
109 6 76 10 90 39 125 36 45 84 146 83 172 -1 9 2 17 6 17 5 0 11 18 15 40 10
63 58 100 130 100 37 0 91 -46 112 -96 36 -85 -62 -237 -234 -367 -53 -39 -90
-73 -83 -75 21 -7 150 87 232 168 89 88 129 158 130 229 2 58 -20 92 -117 187
-64 62 -84 103 -84 170 0 73 78 70 173 -7 72 -58 109 -69 145 -42 56 41 53
136 -5 195 -20 21 -35 40 -32 42 3 3 23 7 44 10 22 2 42 5 45 6 19 7 57 -6 79
-26 35 -33 54 -32 41 2 -20 51 -14 60 39 63 40 1 50 -1 54 -16 8 -28 1 -265
-8 -293 -4 -14 -34 -53 -66 -87 -33 -34 -59 -68 -59 -76 0 -8 6 -32 13 -53 15
-41 13 -77 -4 -132 -13 -40 -5 -53 15 -26 25 33 39 101 32 154 -6 46 -4 53 21
78 15 15 49 55 74 89 57 74 72 133 71 274 0 107 -18 163 -55 173 -24 6 -241 8
-248 2z"/>
<path d="M6970 7609 c0 -15 103 -58 194 -79 169 -41 169 -15 0 30 -60 16 -128
35 -151 44 -26 9 -43 11 -43 5z"/>
<path d="M5432 7318 c5 -15 48 -24 48 -10 0 10 -23 22 -42 22 -5 0 -8 -6 -6
-12z"/>
<path d="M5496 7300 c6 -6 50 -15 100 -21 89 -11 166 -38 225 -79 40 -29 37
-7 -4 24 -49 38 -94 53 -200 70 -115 19 -135 20 -121 6z"/>
<path d="M10735 7249 c-22 -22 -68 -63 -102 -91 -61 -50 -75 -68 -52 -68 23 0
189 145 210 183 18 31 -14 18 -56 -24z"/>
<path d="M10475 7039 c-56 -30 -145 -88 -145 -94 0 -13 174 72 196 96 24 26 1
25 -51 -2z"/>
<path d="M7839 6840 c-62 -41 -167 -139 -149 -139 8 0 31 16 50 35 19 20 61
53 92 75 56 39 77 59 60 59 -5 0 -29 -13 -53 -30z"/>
<path d="M7834 6792 c-41 -30 -69 -60 -63 -66 5 -6 118 77 119 87 0 14 -17 7
-56 -21z"/>
<path d="M7892 6773 c-38 -19 -41 -31 -7 -29 14 0 25 6 25 13 0 6 6 13 13 16
6 2 10 7 7 10 -3 3 -20 -1 -38 -10z"/>
<path d="M9462 6767 c-32 -34 -28 -58 4 -25 15 14 25 31 22 38 -2 7 -12 2 -26
-13z"/>
<path d="M5510 6700 c0 -21 83 -70 117 -70 47 0 38 21 -15 37 -23 6 -52 19
-64 27 -26 18 -38 20 -38 6z"/>
<path d="M5368 6534 c-35 -25 -37 -25 -68 -9 -43 22 -52 9 -15 -22 146 -120
271 -168 490 -188 39 -4 111 -13 160 -20 50 -7 128 -17 175 -20 47 -4 108 -12
135 -19 54 -14 95 -6 95 17 0 10 -33 21 -109 36 -110 22 -166 39 -339 105 -67
26 -122 38 -200 47 -98 10 -114 15 -184 55 -43 24 -83 44 -90 44 -7 0 -30 -12
-50 -26z m217 -78 c33 -8 94 -19 135 -25 87 -12 133 -26 250 -75 93 -38 87
-41 -56 -26 -52 6 -136 14 -188 20 -51 5 -122 19 -158 30 -58 18 -68 25 -101
73 -20 29 -37 56 -37 60 0 3 21 -5 48 -18 26 -13 74 -30 107 -39z"/>
<path d="M5502 6058 c-16 -16 -15 -22 8 -73 29 -63 58 -80 144 -79 106 0 175
29 161 66 -22 55 -274 125 -313 86z m68 -43 c0 -2 -7 -5 -15 -9 -9 -3 -15 0
-15 9 0 9 6 12 15 9 8 -4 15 -7 15 -9z m43 -2 c-7 -2 -19 -2 -25 0 -7 3 -2 5
12 5 14 0 19 -2 13 -5z m85 -48 c4 3 0 10 -8 15 -11 7 -9 9 8 7 12 0 22 -5 22
-9 0 -4 5 -8 11 -8 5 0 7 6 4 13 -4 6 0 4 8 -5 8 -10 17 -15 20 -11 4 3 7 2 7
-4 0 -6 -10 -11 -22 -11 -13 1 -40 -2 -62 -6 -36 -7 -38 -6 -33 13 3 11 -1 25
-9 32 -8 6 -11 15 -8 20 3 5 17 -5 31 -21 14 -17 28 -28 31 -25z m-63 4 c0
-20 -5 -24 -32 -25 -23 -1 -37 5 -47 21 -14 21 -13 22 10 17 13 -2 21 -9 18
-16 -3 -6 3 -1 13 11 22 27 38 24 38 -8z"/>
<path d="M9317 6109 c-4 -15 -1 -19 11 -17 21 4 29 38 9 38 -8 0 -17 -9 -20
-21z"/>
<path d="M9284 6053 c-10 -15 -24 -38 -30 -50 -7 -12 -17 -28 -23 -35 -16 -18
-112 -154 -135 -190 -29 -45 -12 -44 31 2 113 126 207 270 187 290 -8 8 -16 3
-30 -17z"/>
<path d="M8044 5043 c-12 -9 -22 -9 -37 -1 -17 9 -19 8 -14 -6 4 -9 2 -16 -3
-16 -6 0 -10 -5 -10 -11 0 -6 -9 -22 -20 -36 -27 -34 -17 -43 15 -13 14 13 28
21 31 17 7 -6 -36 -67 -48 -67 -4 0 -8 -7 -8 -16 0 -14 2 -15 17 -3 27 23 133
149 133 159 0 12 -35 8 -56 -7z"/>
</g>
</svg>
